<svg xmlns="http://www.w3.org/2000/svg" width="350" height="93" viewBox="0 0 350 93" fill="none"><g clip-path="url(#clip0_1166_7142)"><path d="M180.78 24.7504V38.5214C180.78 38.6981 180.745 38.8731 180.677 39.0362C180.609 39.1993 180.509 39.3475 180.384 39.4725C180.258 39.5974 180.109 39.6966 179.944 39.7641C179.78 39.8317 179.604 39.8665 179.426 39.8665C179.248 39.8665 179.072 39.8317 178.908 39.7641C178.743 39.6966 178.594 39.5974 178.468 39.4725C178.342 39.3475 178.243 39.1993 178.174 39.0362C178.106 38.8731 178.071 38.6981 178.071 38.5214V4.99731C178.069 4.64595 178.137 4.29755 178.271 3.97242C178.405 3.64728 178.603 3.3519 178.853 3.10345C179.103 2.85499 179.4 2.65844 179.728 2.52519C180.055 2.39197 180.406 2.32474 180.76 2.32741H187.754C191.365 2.04417 194.956 3.07129 197.862 5.21813C199.015 6.25201 199.919 7.53051 200.507 8.9588C201.095 10.3871 201.352 11.9285 201.258 13.4687C201.27 15.0503 200.946 16.6168 200.308 18.0657C199.704 19.438 198.8 20.6589 197.659 21.6389C196.416 22.6791 194.981 23.4699 193.435 23.9676C191.621 24.5532 189.722 24.8381 187.815 24.8106L180.78 24.7504ZM180.78 22.5824H187.754C189.28 22.6035 190.797 22.3659 192.242 21.8798C193.486 21.4437 194.628 20.7607 195.598 19.8724C196.467 19.0674 197.156 18.0892 197.619 17.0018C198.126 15.8574 198.381 14.6185 198.367 13.3683C198.45 12.1577 198.267 10.9435 197.831 9.81008C197.395 8.67661 196.715 7.65089 195.84 6.80399C193.52 5.0775 190.645 4.24967 187.754 4.47537H181.69C181.556 4.4727 181.422 4.49669 181.297 4.54593C181.172 4.59518 181.058 4.66868 180.962 4.76215C180.866 4.85563 180.79 4.96717 180.738 5.09028C180.686 5.21339 180.659 5.34556 180.659 5.4791L180.78 22.5824Z" fill="#1D1D1D"></path><path d="M237.362 16.7624C237.313 16.8767 237.232 16.9741 237.127 17.0421C237.023 17.11 236.9 17.1454 236.775 17.1438C236.492 17.1043 236.226 16.986 236.007 16.8025C235.61 16.5324 235.199 16.2844 234.774 16.0598C234.182 15.7484 233.559 15.4995 232.914 15.317C232.033 15.0743 231.12 14.9594 230.206 14.9757C229.305 14.9654 228.41 15.108 227.558 15.3973C226.824 15.6463 226.14 16.0199 225.536 16.5014C224.964 16.9185 224.488 17.4524 224.141 18.0672C223.828 18.6903 223.669 19.3784 223.676 20.0746C223.664 20.7961 223.892 21.5014 224.323 22.0821C224.788 22.6519 225.357 23.1287 226.001 23.4873C226.753 23.8999 227.546 24.2361 228.366 24.491L231.075 25.3341C232.005 25.6151 232.914 25.9364 233.784 26.2777C234.626 26.599 235.422 27.0311 236.149 27.5625C236.843 28.0648 237.422 28.708 237.847 29.4493C238.289 30.2832 238.505 31.2173 238.473 32.1594C238.485 33.2611 238.272 34.3537 237.847 35.3713C237.445 36.3543 236.823 37.2329 236.028 37.9409C235.181 38.7012 234.192 39.2879 233.116 39.6671C231.818 40.1189 230.449 40.3365 229.074 40.3095C227.417 40.3515 225.77 40.0436 224.242 39.4063C222.914 38.8337 221.685 38.0544 220.604 37.0978L221.21 36.1943C221.29 36.0694 221.393 35.9605 221.513 35.8733C221.647 35.7933 221.803 35.758 221.958 35.7729C222.287 35.8137 222.592 35.9622 222.827 36.1943C223.238 36.5334 223.677 36.8355 224.141 37.0978C224.779 37.4784 225.457 37.788 226.163 38.0211C227.129 38.3259 228.141 38.4684 229.155 38.4426C230.164 38.4589 231.169 38.3028 232.126 37.981C232.923 37.7151 233.653 37.2839 234.269 36.7162C234.831 36.1948 235.273 35.5575 235.562 34.8493C235.853 34.1279 236.004 33.3581 236.007 32.5811C236.034 31.7953 235.807 31.0216 235.36 30.3727C234.91 29.7677 234.339 29.2619 233.683 28.8873C232.931 28.4669 232.139 28.1237 231.317 27.8636L228.588 27.0003C227.659 26.7193 226.749 26.4181 225.859 26.0769C225.018 25.7617 224.222 25.3363 223.494 24.8123C222.812 24.3028 222.241 23.6608 221.817 22.9252C221.362 22.0879 221.138 21.1459 221.17 20.1951C221.168 19.2583 221.375 18.3328 221.776 17.485C222.205 16.6151 222.803 15.8375 223.535 15.1966C224.349 14.5041 225.289 13.9726 226.304 13.6308C227.558 13.2034 228.88 13.0062 230.206 13.0486C231.678 13.0286 233.142 13.2665 234.532 13.7512C235.81 14.2348 236.983 14.9571 237.988 15.8791L237.362 16.7624Z" fill="#1D1D1D"></path><path d="M265.116 4.37659C265.119 4.68041 265.058 4.98133 264.935 5.25985C264.798 5.52733 264.622 5.77139 264.409 5.98253C264.194 6.19673 263.942 6.36724 263.66 6.48439C263.376 6.61695 263.065 6.68566 262.752 6.68566C262.436 6.68566 262.126 6.61695 261.842 6.48439C261.558 6.37229 261.303 6.20113 261.093 5.98253C260.872 5.78172 260.701 5.53489 260.588 5.25985C260.459 4.98265 260.39 4.68179 260.385 4.37659C260.393 4.05872 260.461 3.74518 260.588 3.45317C260.706 3.16899 260.877 2.90999 261.093 2.69034C261.308 2.47842 261.563 2.30824 261.842 2.18848C262.13 2.06922 262.439 2.00781 262.752 2.00781C263.063 2.00781 263.371 2.06922 263.66 2.18848C263.937 2.31305 264.189 2.4827 264.409 2.69034C264.617 2.91976 264.796 3.1764 264.935 3.45317C265.055 3.74639 265.116 4.05998 265.116 4.37659ZM264.005 14.735V38.6233C263.998 38.9554 263.863 39.2718 263.623 39.5047C263.386 39.7375 263.065 39.868 262.73 39.868C262.397 39.868 262.077 39.7375 261.837 39.5047C261.599 39.2718 261.462 38.9554 261.457 38.6233V14.735C261.457 14.3995 261.592 14.0779 261.829 13.8407C262.069 13.6035 262.392 13.4703 262.73 13.4703C263.068 13.4703 263.393 13.6035 263.631 13.8407C263.871 14.0779 264.005 14.3995 264.005 14.735Z" fill="#1D1D1D"></path><path d="M305.929 17.0035L305.667 17.2243C305.562 17.2627 305.447 17.2627 305.344 17.2243C305.068 17.182 304.813 17.0557 304.615 16.8629C304.219 16.5712 303.8 16.3095 303.362 16.08C302.718 15.7478 302.04 15.4853 301.34 15.2972C300.427 15.0376 299.48 14.9158 298.53 14.9358C297.143 14.9248 295.767 15.1981 294.487 15.7388C293.322 16.2737 292.299 17.071 291.496 18.0674C290.644 19.1539 290.013 20.3948 289.636 21.7209C289.198 23.2959 288.987 24.9248 289.009 26.5588C288.978 28.2279 289.195 29.8923 289.658 31.4972C290.033 32.8112 290.664 34.0391 291.516 35.1105C292.294 36.0774 293.293 36.8479 294.428 37.3588C295.623 37.8864 296.92 38.1467 298.227 38.1217C299.316 38.1516 300.403 38.0024 301.443 37.6801C302.192 37.4365 302.912 37.1062 303.585 36.6964C304.05 36.3977 304.495 36.0691 304.919 35.7128C305.122 35.4775 305.401 35.321 305.707 35.2712C305.809 35.2648 305.912 35.2857 306.005 35.3314C306.098 35.3774 306.177 35.4466 306.233 35.5322L306.94 36.3754C306.492 36.939 305.969 37.439 305.384 37.8607C304.725 38.3409 304.013 38.7449 303.262 39.0652C302.439 39.4033 301.585 39.6654 300.714 39.8481C299.769 40.035 298.807 40.1291 297.843 40.1291C296.252 40.1437 294.676 39.8292 293.214 39.2057C291.822 38.6071 290.583 37.7007 289.597 36.5559C288.544 35.3018 287.746 33.8563 287.252 32.3C286.66 30.4443 286.371 28.5055 286.403 26.5588C286.388 24.6885 286.66 22.8272 287.21 21.0384C287.69 19.4635 288.488 18.0019 289.555 16.7425C290.603 15.5744 291.902 14.6551 293.356 14.0525C294.972 13.3691 296.714 13.0338 298.472 13.0689C300.045 13.0433 301.612 13.3229 303.08 13.8919C304.38 14.3852 305.574 15.1211 306.598 16.06L305.929 17.0035Z" fill="#1D1D1D"></path><path d="M337.89 13.0475C339.644 13.0306 341.387 13.3722 343.005 14.0512C344.473 14.6636 345.78 15.6047 346.826 16.8014C347.893 18.0547 348.698 19.5088 349.19 21.0772C349.753 22.8976 350.024 24.7941 349.998 26.6979C350.027 28.5955 349.753 30.4857 349.19 32.2989C348.698 33.8671 347.893 35.3213 346.826 36.5747C345.78 37.765 344.473 38.6995 343.005 39.3047C339.718 40.589 336.061 40.589 332.774 39.3047C331.306 38.6995 329.999 37.765 328.953 36.5747C327.874 35.3262 327.062 33.871 326.57 32.2989C326.004 30.4857 325.733 28.5955 325.762 26.6979C325.735 24.7941 326.007 22.8976 326.57 21.0772C327.062 19.505 327.874 18.0498 328.953 16.8014C329.999 15.6047 331.306 14.6636 332.774 14.0512C334.392 13.3722 336.135 13.0306 337.89 13.0475ZM337.89 38.2207C339.319 38.2555 340.741 37.9815 342.053 37.4177C343.215 36.8941 344.229 36.0945 345.005 35.0892C345.846 34.0144 346.454 32.7768 346.784 31.4557C347.2 29.8905 347.396 28.2761 347.371 26.6578C347.393 25.0464 347.195 23.4391 346.784 21.8802C346.451 20.5477 345.844 19.2974 345.005 18.2066C344.229 17.1958 343.215 16.3893 342.053 15.8579C340.736 15.3151 339.326 15.0357 337.899 15.0357C336.475 15.0357 335.063 15.3151 333.746 15.8579C332.573 16.3836 331.553 17.1908 330.774 18.2066C329.945 19.3063 329.333 20.5532 328.976 21.8802C328.555 23.4381 328.351 25.0454 328.369 26.6578C328.349 28.2771 328.552 29.8914 328.976 31.4557C329.33 32.7719 329.94 34.0064 330.774 35.0892C331.553 36.0993 332.576 36.8999 333.746 37.4177C335.058 37.9543 336.472 38.2008 337.89 38.1405V38.2207Z" fill="#1D1D1D"></path><path d="M211.567 89.7936H205.948C205.398 89.8157 204.857 89.6531 204.412 89.332C204.011 89.0389 203.708 88.6332 203.542 88.1675L201.258 82.0248C201.079 81.5348 200.751 81.1116 200.321 80.8134C199.89 80.5152 199.377 80.3565 198.852 80.3587H186.501C185.975 80.3608 185.461 80.521 185.028 80.8185C184.595 81.1158 184.263 81.5365 184.075 82.0248L181.811 88.1675C181.646 88.6114 181.358 89.0007 180.983 89.2917C180.547 89.6346 180.002 89.8125 179.446 89.7936H173.847L187.754 54.6234C188.125 53.6823 188.773 52.8742 189.613 52.3047C190.453 51.7352 191.447 51.4309 192.465 51.4316H192.909C193.927 51.4309 194.92 51.7352 195.761 52.3047C196.601 52.8742 197.249 53.6823 197.619 54.6234L211.567 89.7936ZM189.331 75.2999H195.962C196.279 75.2965 196.591 75.219 196.873 75.0737C197.154 74.9283 197.397 74.719 197.582 74.4629C197.767 74.2069 197.889 73.9111 197.938 73.5998C197.986 73.2882 197.96 72.9698 197.862 72.6703L194.142 62.5327C193.92 61.9705 193.698 61.3082 193.435 60.5253C193.395 60.3576 193.3 60.2084 193.164 60.1014C193.028 59.9945 192.86 59.9362 192.687 59.9362C192.513 59.9362 192.345 59.9945 192.209 60.1014C192.074 60.2084 191.978 60.3576 191.939 60.5253C191.696 61.3082 191.454 61.9907 191.231 62.5327L187.512 72.5699C187.394 72.8735 187.352 73.2012 187.39 73.5244C187.428 73.8477 187.544 74.1571 187.729 74.4257C187.914 74.6942 188.162 74.9142 188.452 75.0666C188.742 75.219 189.064 75.299 189.392 75.2999H189.331Z" fill="#1D1D1D"></path><path d="M222.12 50.3672V89.7932H215.509V50.3672H222.12Z" fill="#1D1D1D"></path><path d="M237.665 54.6433C237.664 55.1899 237.547 55.7305 237.321 56.229C236.865 57.2112 236.058 57.9907 235.057 58.4172C234.532 58.635 233.968 58.7444 233.399 58.7383C232.843 58.7463 232.292 58.6369 231.782 58.4172C231.29 58.2014 230.838 57.9024 230.448 57.534C230.077 57.1538 229.776 56.7122 229.559 56.229C229.333 55.7305 229.215 55.1899 229.215 54.6433C229.211 54.0765 229.328 53.5155 229.559 52.9971C229.771 52.4991 230.072 52.0433 230.448 51.652C230.838 51.2835 231.29 50.9846 231.782 50.7688C232.292 50.5493 232.843 50.4397 233.399 50.4477C233.968 50.4418 234.532 50.551 235.057 50.7688C235.55 50.9846 236.001 51.2835 236.391 51.652C236.78 52.0416 237.095 52.4971 237.321 52.9971C237.551 53.5155 237.668 54.0765 237.665 54.6433ZM236.674 62.6729V89.7935H230.084V62.5725L236.674 62.6729Z" fill="#1D1D1D"></path><path d="M265.621 89.7927H262.649C262.143 89.8131 261.638 89.7171 261.173 89.5117C260.774 89.2529 260.493 88.8496 260.385 88.3876L259.8 86.3802C259.093 86.9825 258.425 87.5444 257.779 88.0062C257.14 88.4586 256.464 88.855 255.757 89.1906C255.033 89.5088 254.271 89.7443 253.493 89.8931C252.614 90.0603 251.721 90.141 250.825 90.1339C249.736 90.1531 248.649 89.9974 247.612 89.6724C246.677 89.3917 245.813 88.9121 245.083 88.267C244.366 87.6334 243.805 86.8432 243.446 85.9585C243.031 84.9391 242.832 83.8459 242.86 82.7468C242.865 81.678 243.143 80.6281 243.669 79.6955C244.342 78.6075 245.272 77.698 246.378 77.0457C247.949 76.1237 249.653 75.4468 251.432 75.0383C253.997 74.4593 256.623 74.1898 259.255 74.2352V72.6493C259.352 71.2186 258.944 69.799 258.102 68.6345C257.673 68.1795 257.147 67.8246 256.565 67.5957C255.98 67.3665 255.353 67.2687 254.727 67.3096C253.816 67.2928 252.908 67.4216 252.037 67.6909C251.388 67.9036 250.764 68.1865 250.177 68.5341L248.723 69.3571C248.282 69.6133 247.778 69.7452 247.266 69.7384C246.858 69.7435 246.454 69.6244 246.114 69.3972C245.798 69.1699 245.534 68.8751 245.348 68.5341L244.134 66.5267C247.235 63.6764 251.329 62.1359 255.554 62.2307C257.022 62.2057 258.479 62.4718 259.84 63.0136C261.049 63.5021 262.138 64.2412 263.034 65.1816C263.939 66.1373 264.627 67.2734 265.055 68.5139C265.53 69.876 265.763 71.3091 265.743 72.7496L265.621 89.7927ZM252.786 85.7779C253.417 85.7874 254.049 85.7198 254.665 85.5771C255.223 85.4602 255.767 85.2784 256.283 85.0351C256.802 84.7828 257.297 84.4805 257.759 84.1319C258.258 83.744 258.733 83.3216 259.174 82.8671V78.2901C257.561 78.266 255.953 78.3868 254.362 78.6515C253.287 78.8192 252.24 79.1299 251.249 79.5749C250.583 79.8529 250.003 80.3036 249.572 80.8799C249.254 81.363 249.085 81.9284 249.085 82.5059C249.043 82.9706 249.112 83.439 249.288 83.8721C249.464 84.305 249.741 84.69 250.096 84.995C250.894 85.5142 251.834 85.7675 252.786 85.7176V85.7779Z" fill="#1D1D1D"></path><path d="M272.112 89.7928V62.572H276.152C276.527 62.5453 276.901 62.6488 277.207 62.8649C277.513 63.081 277.734 63.3962 277.831 63.7564L278.297 65.9043C278.837 65.3533 279.417 64.8433 280.034 64.3786C280.668 63.9129 281.344 63.5095 282.056 63.1743C282.758 62.8335 283.498 62.5773 284.259 62.4113C285.098 62.2555 285.952 62.1948 286.807 62.2307C288.192 62.1953 289.57 62.4483 290.85 62.9735C291.966 63.4526 292.955 64.1808 293.741 65.1012C294.538 66.0662 295.136 67.1781 295.498 68.3735C295.916 69.7259 296.122 71.1344 296.105 72.5489V89.8732H289.494V72.4687C289.587 71.0887 289.178 69.7217 288.344 68.6144C287.906 68.1343 287.362 67.76 286.755 67.5199C286.151 67.28 285.497 67.1806 284.846 67.2292C283.733 67.2238 282.634 67.4929 281.652 68.0121C280.607 68.5273 279.652 69.205 278.823 70.0195V89.7126L272.112 89.7928Z" fill="#1D1D1D"></path><path d="M322.323 65.2821C322.326 65.7349 322.242 66.1841 322.081 66.607C321.927 66.9983 321.721 67.3692 321.476 67.7112L308.436 84.7542H321.961V89.793H300.755V87.0628C300.772 86.6924 300.846 86.3266 300.978 85.9788C301.127 85.5544 301.355 85.1601 301.644 84.8145L314.785 67.5906H301.543V62.5723H322.323V65.2821Z" fill="#1D1D1D"></path><path d="M349.067 89.7936H346.118C345.609 89.814 345.105 89.7177 344.642 89.5124C344.437 89.3886 344.261 89.2253 344.121 89.0321C343.984 88.8391 343.884 88.6201 343.832 88.3882L343.247 86.3808C342.603 86.9598 341.928 87.5025 341.226 88.0069C340.587 88.4602 339.911 88.8566 339.204 89.1913C338.472 89.5094 337.706 89.745 336.92 89.8939C336.039 90.0629 335.146 90.1436 334.25 90.1348C333.161 90.1509 332.077 89.9948 331.036 89.673C330.104 89.3877 329.242 88.9086 328.51 88.2679C327.806 87.6233 327.245 86.8361 326.873 85.9594C326.467 84.9376 326.266 83.846 326.286 82.7474C326.3 81.6801 326.579 80.6326 327.096 79.6961C327.762 78.5739 328.699 77.6352 329.825 76.9661C331.386 76.0403 333.085 75.3629 334.857 74.9584C337.429 74.38 340.063 74.1104 342.701 74.1556V72.5697C342.804 71.1354 342.391 69.7111 341.529 68.5549C341.101 68.0987 340.574 67.7431 339.992 67.5139C339.407 67.2847 338.778 67.1877 338.151 67.23C337.248 67.2115 336.348 67.3403 335.484 67.6113C334.835 67.824 334.211 68.1067 333.623 68.4545L332.17 69.2775C331.722 69.5363 331.21 69.6683 330.694 69.6588C330.283 69.6639 329.881 69.5448 329.541 69.3176C329.235 69.0792 328.973 68.7865 328.772 68.4545L327.58 66.4471C330.672 63.5924 334.762 62.0507 338.981 62.1511C340.447 62.1261 341.906 62.3922 343.267 62.934C344.476 63.4225 345.563 64.1617 346.461 65.102C347.357 66.0633 348.047 67.1977 348.483 68.4343C348.94 69.7998 349.165 71.2312 349.148 72.6701L349.067 89.7936ZM336.252 85.7785C336.879 85.7868 337.503 85.7195 338.112 85.5778C338.673 85.4643 339.214 85.2822 339.73 85.0358C340.251 84.7881 340.748 84.4852 341.206 84.1326C341.708 83.74 342.187 83.3178 342.64 82.8679V78.291C341.022 78.2667 339.405 78.3877 337.809 78.6521C336.734 78.824 335.689 79.1344 334.695 79.5757C334.032 79.8516 333.459 80.303 333.038 80.8805C332.706 81.3581 332.529 81.9259 332.532 82.5065C332.488 82.9734 332.556 83.4445 332.737 83.8786C332.916 84.3124 333.2 84.696 333.565 84.9956C334.358 85.5189 335.3 85.7725 336.252 85.7185V85.7785Z" fill="#1D1D1D"></path><path d="M46.6961 27.7628C49.9029 27.7497 53.0062 26.6331 55.4772 24.6033C57.9483 22.5734 59.6346 19.7558 60.2489 16.6301C60.8633 13.5044 60.3679 10.2639 58.8467 7.46025C57.3256 4.6566 54.8731 2.46315 51.9065 1.25333C48.94 0.0435092 45.6429 -0.107886 42.5766 0.824923C39.5103 1.75773 36.8645 3.71707 35.0893 6.36937C33.3144 9.02166 32.5197 12.2029 32.841 15.3716C33.1624 18.5402 34.5795 21.5004 36.8516 23.748C38.1434 25.0306 39.6787 26.0461 41.3685 26.7351C43.0586 27.4244 44.8693 27.7737 46.6961 27.7628ZM143.727 32.1191C138.912 32.0875 134.302 30.1739 130.897 26.7925C127.492 23.411 125.565 18.834 125.533 14.0521C125.533 11.2728 124.704 8.55599 123.149 6.24517C121.594 3.93432 119.384 2.13322 116.798 1.06966C114.213 0.00608812 111.368 -0.272189 108.623 0.270012C105.878 0.812213 103.356 2.15054 101.377 4.11576C99.3985 6.08098 98.0507 8.58482 97.5049 11.3106C96.9588 14.0365 97.2391 16.8619 98.3101 19.4295C99.3811 21.9972 101.195 24.1919 103.522 25.7359C105.849 27.2801 108.584 28.104 111.383 28.104C113.934 27.8367 116.512 28.105 118.951 28.891C121.39 29.6771 123.636 30.9638 125.542 32.6674C127.448 34.371 128.972 36.4535 130.015 38.7798C131.059 41.1063 131.598 43.6243 131.598 46.1711C131.598 48.7176 131.059 51.2359 130.015 53.5622C128.972 55.8884 127.448 57.9712 125.542 59.6748C123.636 61.3783 121.39 62.6648 118.951 63.4511C116.512 64.2372 113.934 64.5052 111.383 64.2379C108.584 64.2379 105.849 65.0621 103.522 66.6062C101.195 68.1501 99.3811 70.3449 98.3101 72.9125C97.2391 75.4802 96.9588 78.3057 97.5049 81.0313C98.0507 83.7572 99.3985 86.2612 101.377 88.2263C103.356 90.1916 105.878 91.5299 108.623 92.0721C111.368 92.6141 114.213 92.3361 116.798 91.2725C119.384 90.2089 121.594 88.4078 123.149 86.0968C124.704 83.7861 125.533 81.0692 125.533 78.2899C125.565 73.508 127.492 68.931 130.897 65.5497C134.302 62.1683 138.912 60.2547 143.727 60.2231C147.48 60.2231 151.079 58.7426 153.732 56.1074C156.386 53.472 157.877 49.8978 157.877 46.1711C157.877 42.4443 156.386 38.8699 153.732 36.2347C151.079 33.5995 147.48 32.1191 143.727 32.1191ZM79.0395 32.1191C75.2867 32.1191 71.6876 33.5995 69.0339 36.2347C66.3801 38.8699 64.8893 42.4443 64.8893 46.1711C64.8893 50.9894 62.9618 55.6101 59.5311 59.0173C56.1001 62.4242 51.4468 64.3383 46.595 64.3383C41.743 64.3383 37.0897 62.4242 33.659 59.0173C30.228 55.6101 28.3006 50.9894 28.3006 46.1711C28.3006 43.3917 27.4708 40.6749 25.9159 38.3641C24.361 36.0534 22.1511 34.2521 19.5654 33.1885C16.9798 32.1251 14.1346 31.8468 11.3897 32.3891C8.64483 32.9311 6.12351 34.2696 4.14454 36.2347C2.16558 38.1998 0.817893 40.7038 0.271901 43.4297C-0.274092 46.1555 0.00613062 48.9808 1.07714 51.5484C2.14814 54.1161 3.96183 56.3109 6.28884 57.855C8.61582 59.3989 11.3517 60.2231 14.1503 60.2231C19.0007 60.2017 23.6615 62.0919 27.1101 65.4789C30.5589 68.8661 32.5138 73.4733 32.5458 78.2899C32.5458 82.0169 34.0366 85.591 36.6903 88.2263C39.3439 90.8615 42.943 92.3422 46.6961 92.3422C50.4489 92.3422 54.0481 90.8615 56.7017 88.2263C59.3556 85.591 60.8464 82.0169 60.8464 78.2899C60.8782 73.508 62.8052 68.931 66.2102 65.5497C69.6152 62.1683 74.2242 60.2547 79.0395 60.2231C82.7926 60.2231 86.3918 58.7426 89.0454 56.1074C91.699 53.472 93.1901 49.8978 93.1901 46.1711C93.1901 42.4443 91.699 38.8699 89.0454 36.2347C86.3918 33.5995 82.7926 32.1191 79.0395 32.1191Z" fill="url(#paint0_linear_1166_7142)"></path></g><defs><linearGradient id="paint0_linear_1166_7142" x1="155.573" y1="46.1509" x2="-16.3941" y2="46.1509" gradientUnits="userSpaceOnUse"><stop stop-color="#A92345"></stop><stop offset="0.11" stop-color="#8C2753"></stop><stop offset="0.3" stop-color="#612C68"></stop><stop offset="0.44" stop-color="#472F75"></stop><stop offset="0.53" stop-color="#3D307A"></stop><stop offset="0.62" stop-color="#343E84"></stop><stop offset="0.81" stop-color="#1D619E"></stop><stop offset="1" stop-color="#008EBF"></stop></linearGradient><clipPath id="clip0_1166_7142"><rect width="350" height="92.3611" fill="white"></rect></clipPath></defs></svg>